<?xml version="1.0" encoding="UTF-8"?><svg id="a" xmlns="http://www.w3.org/2000/svg" viewBox="0 0 1386 474"><defs><style>.b{letter-spacing:1em;}.c{font-family:MalgunGothicBold, Malgun Gothic;font-size:30px;}.c,.d{fill:#fff;stroke:#fff;stroke-miterlimit:10;stroke-width:4px;}.e{letter-spacing:.99em;}.f{letter-spacing:1em;}</style></defs><g><path class="d" d="M89.19,42.85c1.86,0,3.65,.05,5.37,.16,1.72,.11,3.37,.26,4.96,.47,1.58,.21,3.1,.47,4.55,.79,1.45,.32,2.83,.68,4.14,1.1,1.31,.42,2.55,.89,3.73,1.42,1.47,.66,2.85,1.36,4.15,2.12,1.3,.75,2.51,1.56,3.64,2.41,1.13,.85,2.18,1.75,3.14,2.7s1.85,1.95,2.64,2.99c.8,1.06,1.53,2.19,2.19,3.33,.67,1.14,1.27,2.32,1.82,3.53s1.02,2.46,1.44,3.73c.42,1.28,.77,2.59,1.06,3.94,.29,1.35,.54,2.69,.76,4.05,.22,1.35,.4,2.71,.54,4.07,.15,1.36,.25,2.72,.33,4.09,.07,1.37,.11,2.74,.11,4.11s-.04,2.69-.11,4.04c-.07,1.35-.18,2.69-.33,4.04-.15,1.35-.33,2.69-.54,4.04-.22,1.35-.47,2.69-.76,4.04-.29,1.35-.64,2.66-1.06,3.94-.42,1.28-.9,2.52-1.44,3.73s-1.15,2.39-1.82,3.53c-.67,1.14-1.4,2.27-2.19,3.33-.81,1.07-1.73,2.1-2.71,3.08s-2.04,1.9-3.18,2.77c-1.14,.87-2.36,1.7-3.65,2.47-1.3,.77-2.67,1.5-4.12,2.17-1.16,.54-2.39,1.02-3.69,1.45-1.3,.43-2.67,.81-4.11,1.13-1.44,.32-2.95,.59-4.53,.81-1.58,.22-3.23,.38-4.95,.48-1.72,.11-3.51,.16-5.37,.16H52.51v173.84h-4.95V42.85h41.64Zm-.73,85.56c1.71,0,3.36-.05,4.94-.14,1.58-.09,3.1-.23,4.55-.41,1.45-.18,2.84-.41,4.16-.68s2.58-.59,3.78-.95c1.19-.36,2.32-.77,3.39-1.23,1.33-.57,2.59-1.18,3.77-1.85,1.18-.66,2.29-1.38,3.32-2.14,1.03-.76,1.99-1.57,2.87-2.43,.88-.86,1.7-1.77,2.42-2.73,.94-1.23,1.77-2.53,2.51-3.9s1.37-2.79,1.9-4.28c.53-1.49,.96-3.04,1.29-4.65,.33-1.61,.6-3.24,.81-4.87,.22-1.63,.38-3.28,.49-4.93s.16-3.32,.16-4.99-.05-3.34-.16-4.99c-.11-1.65-.27-3.3-.49-4.93-.22-1.63-.49-3.26-.81-4.87-.33-1.61-.76-3.18-1.29-4.69-.53-1.51-1.16-2.98-1.9-4.39-.73-1.42-1.56-2.82-2.51-4.1-.7-.95-1.54-1.87-2.42-2.73-.88-.86-1.84-1.68-2.87-2.45-1.03-.77-2.14-1.49-3.32-2.17-1.18-.68-2.44-1.31-3.77-1.89-1.06-.47-2.19-.89-3.39-1.26s-2.45-.7-3.78-.98-2.71-.51-4.16-.7c-1.45-.19-2.97-.33-4.55-.42-1.58-.09-3.23-.14-4.94-.14H52.51v80.9h35.95Z"/><path class="d" d="M308.01,187.58c0,1.46-.04,2.88-.12,4.25-.08,1.37-.19,2.7-.35,3.99-.16,1.28-.35,2.52-.58,3.72-.23,1.2-.51,2.35-.82,3.45-.31,1.11-.66,2.17-1.05,3.19-.39,1.02-.82,1.99-1.28,2.92s-.97,1.82-1.52,2.66-1.13,1.03-1.75,4.05c-.62,3.02-1.28,8.01-1.98,13.67-.31,2.55-.64,5.25-.97,8.04s-.67,5.65-1.02,8.54-.71,5.79-1.07,8.67c-.37,2.88-.74,5.73-1.12,8.51-.38,2.79-.77,5.51-1.17,8.14-.4,2.63-.81,5.17-1.22,7.6s-.84,4.76-1.28,6.96c-.43,2.21-.88,4.3-1.33,6.26s-.91,3.81-1.38,5.54c-.47,1.73-.94,3.33-1.43,4.82-.48,1.49-.98,2.86-1.48,4.13-.5,1.26-1.01,2.42-1.53,3.47s-1.05,2.01-1.58,2.88-1.08,1.64-1.63,2.34c-.55,.69-1.11,1.31-1.68,1.85-.57,.54-1.15,1.02-1.73,1.43-.59,.41-1.18,.76-1.78,1.05-.6,.29-1.21,.53-1.84,.72-.62,.19-1.25,.33-1.89,.42-.64,.09-1.28,.14-1.94,.14s-1.3-.05-1.94-.14c-.64-.09-1.27-.23-1.89-.42s-1.23-.43-1.84-.72c-.6-.29-1.2-.64-1.79-1.05-.59-.41-1.17-.88-1.74-1.43-.57-.54-1.13-1.16-1.69-1.85-.55-.69-1.1-1.47-1.63-2.34s-1.06-1.82-1.58-2.88c-.52-1.06-1.03-2.21-1.53-3.47-.5-1.26-1-2.64-1.48-4.13-.49-1.49-.96-3.09-1.43-4.82-.47-1.73-.93-3.57-1.38-5.54s-.9-4.06-1.33-6.26c-.44-2.21-.86-4.53-1.28-6.96-.42-2.43-.83-4.97-1.23-7.6-.4-2.63-.8-5.35-1.18-8.14-.39-2.79-.76-5.63-1.13-8.51-.37-2.88-.73-5.78-1.08-8.67-.35-2.89-.69-5.75-1.03-8.54s-.66-5.49-.98-8.04c-.71-5.66-1.37-10.65-2-13.67-.63-3.02-1.22-3.21-1.77-4.05-.55-.84-1.06-1.73-1.53-2.66s-.9-1.9-1.3-2.92c-.39-1.02-.75-2.08-1.06-3.19-.31-1.11-.59-2.26-.82-3.45-.24-1.2-.43-2.44-.59-3.72-.16-1.28-.27-2.61-.35-3.99-.08-1.37-.12-2.79-.12-4.25v-62.39c0-1.88,.06-3.68,.19-5.42,.13-1.73,.32-3.39,.58-4.98s.58-3.1,.97-4.54c.39-1.44,.84-2.81,1.36-4.1s1.1-2.51,1.75-3.66,1.36-2.22,2.14-3.22c.78-1,1.62-1.93,2.53-2.78,.91-.85,1.88-1.65,2.93-2.38,1.05-.73,2.16-1.4,3.34-2.01s2.43-1.16,3.75-1.65c1.32-.49,2.71-.92,4.17-1.28,1.46-.37,2.98-.67,4.58-.92s3.26-.43,4.99-.55,3.53-.18,5.4-.18,3.67,.06,5.4,.18c1.73,.12,3.39,.31,4.98,.55s3.11,.55,4.57,.92c1.45,.37,2.84,.79,4.15,1.28,1.32,.49,2.56,1.04,3.74,1.65,1.18,.61,2.28,1.28,3.32,2.01,1.04,.73,2.01,1.53,2.91,2.38,.9,.85,1.73,1.78,2.51,2.78,.77,1,1.48,2.07,2.12,3.22,.64,1.15,1.22,2.37,1.74,3.66s.96,2.66,1.35,4.1c.39,1.44,.71,2.95,.96,4.54s.45,3.25,.58,4.98,.19,3.54,.19,5.42v62.39Zm-4.77-62.39c0-1.95-.07-3.82-.22-5.59s-.37-3.46-.66-5.06c-.3-1.6-.66-3.11-1.11-4.53-.44-1.42-.96-2.75-1.55-3.99-.59-1.24-1.26-2.4-1.99-3.46-.74-1.06-1.55-2.04-2.44-2.93-.89-.89-1.86-1.7-2.93-2.44-1.07-.74-2.23-1.4-3.48-2-1.25-.59-2.59-1.11-4.02-1.55-1.43-.44-2.95-.81-4.57-1.11-1.61-.3-3.32-.52-5.11-.67-1.8-.15-3.68-.22-5.66-.22s-3.86,.07-5.66,.22c-1.8,.15-3.5,.37-5.12,.67-1.62,.3-3.14,.67-4.58,1.11-1.44,.44-2.78,.96-4.04,1.55-1.26,.59-2.42,1.26-3.5,2-1.08,.74-2.06,1.55-2.96,2.44-.9,.89-1.72,1.86-2.47,2.93-.75,1.06-1.42,2.22-2.02,3.46-.6,1.24-1.12,2.57-1.57,3.99-.45,1.42-.82,2.93-1.12,4.53s-.52,3.28-.67,5.06c-.15,1.78-.22,3.64-.22,5.59v62.39c0,1.95,.07,3.82,.22,5.59,.15,1.78,.37,3.46,.67,5.06s.67,3.11,1.12,4.53c.45,1.42,.97,2.75,1.57,3.99,.6,1.24,1.27,2.4,2.02,3.46,.75,1.06,1.57,1.88,2.47,2.93,.34,.39,.69,1.27,1.05,2.48,.36,1.21,.74,2.76,1.12,4.53,.39,1.77,.79,3.75,1.2,5.85,.41,2.1,.84,4.32,1.27,6.59,.44,2.27,.89,4.58,1.35,6.87s.94,4.59,1.43,6.82,.99,4.42,1.5,6.52c.51,2.1,1.04,4.12,1.58,6.03s1.09,3.73,1.65,5.42,1.14,3.28,1.73,4.74c.59,1.46,1.19,2.81,1.81,4.02,.61,1.22,1.24,2.31,1.88,3.29,.64,.97,1.29,1.82,1.96,2.54s1.34,1.33,2.03,1.81c.69,.48,1.39,.84,2.11,1.08,.72,.24,1.44,.36,2.19,.36s1.47-.12,2.19-.36,1.42-.6,2.11-1.08c.69-.48,1.37-1.08,2.03-1.81,.66-.73,1.32-1.57,1.96-2.54,.64-.97,1.27-2.07,1.88-3.29s1.21-2.56,1.8-4.02,1.16-3.05,1.73-4.74,1.11-3.51,1.65-5.42c.54-1.91,1.06-3.93,1.57-6.03,.51-2.1,1.01-4.28,1.5-6.52s.96-4.52,1.42-6.82c.46-2.3,.91-4.61,1.34-6.87,.43-2.27,.86-4.49,1.27-6.59,.41-2.1,.81-4.08,1.19-5.85s.75-3.32,1.11-4.53c.36-1.21,.7-2.09,1.04-2.48,.89-1.05,1.7-1.87,2.44-2.93,.74-1.06,1.4-2.22,1.99-3.46,.59-1.24,1.11-2.57,1.55-3.99,.44-1.42,.81-2.93,1.11-4.53,.3-1.6,.52-3.28,.66-5.06,.15-1.78,.22-3.64,.22-5.59v-62.39Z"/><path class="d" d="M411.64,106.71c.64-1.37,1.36-2.69,2.14-3.93,.79-1.25,1.65-2.43,2.58-3.55s1.94-2.18,3.01-3.17c1.08-.99,2.23-1.93,3.45-2.79,1.22-.87,2.52-1.64,3.9-2.31,1.38-.67,2.83-1.25,4.36-1.73,1.53-.48,3.13-.86,4.82-1.14,1.68-.28,3.44-.47,5.27-.56,1.55-.08,2.97-.11,4.28-.08,1.3,.03,2.49,.11,3.55,.24,1.06,.13,2,.32,2.81,.56,1.22,.36,2.31,.72,3.25,1.08s1.76,.72,2.43,1.08c-.59,1.58-.88,2.37-1.47,3.95-1.26-.64-2.64-1.16-4.14-1.57-1.49-.41-3.1-.71-4.83-.9-1.73-.19-3.57-.27-5.52-.22-1.5,.04-2.96,.17-4.36,.39-1.4,.22-2.74,.53-4.04,.93s-2.53,.89-3.71,1.46c-1.18,.58-2.3,1.21-3.36,1.88-1.06,.68-2.06,1.41-3,2.18-.94,.78-1.81,1.61-2.63,2.48-.85,.92-1.65,1.86-2.38,2.84-.73,.98-1.41,1.98-2.02,3.02-.61,1.04-1.16,2.1-1.65,3.2-.49,1.1-.92,2.19-1.28,3.28s-.67,2.18-.92,3.26c-.24,1.08-.43,2.16-.55,3.24v187.11h-4.4V89.31h4.4v17.4Z"/><path class="d" d="M565.16,64.56v24.75h27.33v4.48h-27.33v107.42c0,.99,.02,1.93,.07,2.84s.12,1.77,.22,2.59c.1,.82,.22,1.61,.37,2.35,.15,.74,.32,1.44,.51,2.11s.41,1.28,.66,1.86,.51,2.27,.8,4.8c.29,2.53,.61,5.73,.95,9.06,.34,3.33,.71,6.78,1.1,10.05,.31,2.62,.64,5.24,.98,7.81s.7,5.08,1.07,7.49c.37,2.41,.76,4.71,1.16,6.88,.4,2.17,.82,4.21,1.25,6.09,.43,1.89,.88,3.62,1.34,5.2,.46,1.58,.94,3,1.43,4.26,.49,1.26,1,2.36,1.52,3.3s1.06,1.72,1.61,2.34c.55,.62,1.12,1.09,1.7,1.4,.58,.31,1.18,.47,1.79,.47,1.04,0,2.1-.44,3.19-1.3,1.09-.87,2.2-2.17,3.33-3.9,.75-1.16,1.48-2.45,2.17-3.86,.69-1.4,1.35-2.93,1.99-4.56,.63-1.63,1.23-3.38,1.8-5.23,.02,2.04,.05,3.98,.07,5.84,.02,1.85,.04,3.62,.06,5.32,.02,1.7,.04,3.33,.06,4.91,.02,1.58,.04,3.12,.06,4.63,.02,1.51,.04,3,.06,4.48s.04,2.96,.06,4.45,.04,2.99,.06,4.52c.02,1.53,.04,3.08,.06,4.66,.02,1.58,.05,3.2,.07,4.84-.49,1.68-1.04,3.15-1.65,4.43-.61,1.28-1.28,2.39-2.02,3.34-.73,.94-1.47,1.73-2.2,2.39-.73,.66-1.47,1.19-2.2,1.6-1.46,.81-2.91,1.39-4.31,1.77-1.4,.38-2.54,.56-3.39,.56-.53-.17-1.04-.4-1.55-.69-.51-.3-1-.66-1.49-1.1-.49-.44-.96-.96-1.43-1.57-.47-.61-.92-1.31-1.37-2.11-.45-.8-.88-1.71-1.31-2.73-.43-1.02-.84-2.17-1.25-3.44-.41-1.28-.8-2.68-1.19-4.24-.39-1.55-.76-3.25-1.13-5.1-.37-1.85-.73-3.86-1.07-6.02-.35-2.16-.69-4.48-1.01-6.95-.33-2.47-.65-5.09-.95-7.86-.31-2.76-.61-5.66-.89-8.68-.29-3.01-.57-6.14-.83-9.34-.29-3.47-.57-7.07-.83-10.74s-.52-7.39-.76-11.05c-.24-3.65-.47-7.24-.69-10.56-.22-3.32-.42-6.39-.62-8.95s-.38-4.6-.54-5.8c-.17-1.2-.33-1.39-.47-1.88s-.28-1-.4-1.53c-.12-.53-.23-1.07-.33-1.63-.1-.56-.18-1.13-.25-1.72s-.13-1.2-.18-1.82-.08-1.26-.11-1.92c-.02-.66-.04-1.33-.04-2.01V93.8h-21.09v-4.48h21.09v-24.75h4.95Z"/><path class="d" d="M723.63,48.41c-2.08,0-3.95,.17-5.62,.51-1.66,.34-3.12,.85-4.37,1.52-1.25,.68-2.29,1.52-3.13,2.54-.63,.76-1.18,1.64-1.65,2.62s-.86,2.08-1.17,3.28c-.31,1.2-.55,2.52-.7,3.94-.16,1.42-.23,2.96-.23,4.6v21.88h29.71v4.48h-29.71v213.12h-4.95V93.8h-21.46v-4.48h21.46v-21.88c0-1.73,.1-3.39,.29-4.96,.19-1.57,.49-3.07,.88-4.48,.39-1.41,.88-2.74,1.46-4,.58-1.25,1.27-2.42,2.05-3.52,.78-1.09,1.7-2.05,2.76-2.86,1.06-.82,2.26-1.5,3.59-2.05,1.34-.55,2.81-.96,4.43-1.23s3.37-.41,5.27-.41h13.21v4.48h-12.1Z"/><path class="d" d="M907.24,187.58c0,1.46-.04,2.88-.12,4.25-.08,1.37-.19,2.7-.35,3.99-.16,1.28-.35,2.52-.58,3.72-.23,1.2-.51,2.35-.82,3.45-.31,1.11-.66,2.17-1.05,3.19-.39,1.02-.82,1.99-1.28,2.92s-.97,1.82-1.52,2.66-1.13,1.03-1.75,4.05c-.62,3.02-1.28,8.01-1.98,13.67-.31,2.55-.64,5.25-.97,8.04s-.67,5.65-1.02,8.54-.71,5.79-1.07,8.67c-.37,2.88-.74,5.73-1.12,8.51-.38,2.79-.77,5.51-1.17,8.14-.4,2.63-.81,5.17-1.22,7.6-.42,2.43-.84,4.76-1.28,6.96-.43,2.21-.88,4.3-1.33,6.26-.45,1.97-.91,3.81-1.38,5.54-.47,1.73-.94,3.33-1.43,4.82-.48,1.49-.98,2.86-1.48,4.13-.5,1.26-1.01,2.42-1.53,3.47s-1.05,2.01-1.58,2.88c-.54,.87-1.08,1.64-1.63,2.34-.55,.69-1.11,1.31-1.68,1.85-.57,.54-1.15,1.02-1.73,1.43-.59,.41-1.18,.76-1.78,1.05-.6,.29-1.22,.53-1.84,.72-.62,.19-1.25,.33-1.89,.42-.64,.09-1.28,.14-1.94,.14s-1.3-.05-1.94-.14c-.64-.09-1.27-.23-1.89-.42s-1.23-.43-1.84-.72c-.6-.29-1.2-.64-1.79-1.05-.59-.41-1.17-.88-1.74-1.43-.57-.54-1.13-1.16-1.69-1.85-.55-.69-1.1-1.47-1.63-2.34-.54-.87-1.06-1.82-1.58-2.88-.52-1.06-1.03-2.21-1.53-3.47-.5-1.26-1-2.64-1.48-4.13-.49-1.49-.96-3.09-1.43-4.82-.47-1.73-.93-3.57-1.38-5.54-.45-1.97-.9-4.06-1.33-6.26-.44-2.21-.86-4.53-1.28-6.96s-.83-4.97-1.23-7.6c-.4-2.63-.8-5.35-1.18-8.14-.39-2.79-.76-5.63-1.13-8.51-.37-2.88-.73-5.78-1.08-8.67s-.69-5.75-1.03-8.54c-.33-2.79-.66-5.49-.98-8.04-.71-5.66-1.37-10.65-2-13.67-.63-3.02-1.22-3.21-1.77-4.05-.55-.84-1.06-1.73-1.53-2.66s-.9-1.9-1.3-2.92c-.39-1.02-.75-2.08-1.06-3.19s-.59-2.26-.82-3.45c-.24-1.2-.43-2.44-.59-3.72-.16-1.28-.27-2.61-.35-3.99-.08-1.37-.12-2.79-.12-4.25v-62.39c0-1.88,.06-3.68,.19-5.42,.13-1.73,.32-3.39,.58-4.98,.26-1.59,.58-3.1,.97-4.54,.39-1.44,.84-2.81,1.36-4.1,.52-1.29,1.1-2.51,1.75-3.66s1.36-2.22,2.14-3.22c.78-1,1.62-1.93,2.53-2.78,.91-.85,1.89-1.65,2.93-2.38,1.05-.73,2.16-1.4,3.34-2.01,1.18-.61,2.43-1.16,3.75-1.65,1.32-.49,2.71-.92,4.17-1.28,1.46-.37,2.98-.67,4.58-.92,1.59-.24,3.26-.43,4.99-.55s3.53-.18,5.4-.18,3.67,.06,5.4,.18,3.39,.31,4.98,.55,3.11,.55,4.57,.92c1.45,.37,2.84,.79,4.15,1.28,1.32,.49,2.56,1.04,3.74,1.65,1.18,.61,2.28,1.28,3.32,2.01,1.04,.73,2.01,1.53,2.91,2.38,.9,.85,1.73,1.78,2.51,2.78,.77,1,1.48,2.07,2.12,3.22,.64,1.15,1.22,2.37,1.73,3.66,.51,1.29,.96,2.66,1.35,4.1,.39,1.44,.71,2.95,.96,4.54,.26,1.59,.45,3.25,.58,4.98s.19,3.54,.19,5.42v62.39Zm-4.77-62.39c0-1.95-.07-3.82-.22-5.59-.15-1.78-.37-3.46-.66-5.06-.3-1.6-.66-3.11-1.11-4.53-.44-1.42-.96-2.75-1.55-3.99-.59-1.24-1.26-2.4-1.99-3.46s-1.55-2.04-2.44-2.93c-.89-.89-1.86-1.7-2.93-2.44-1.07-.74-2.23-1.4-3.48-2-1.25-.59-2.59-1.11-4.02-1.55-1.43-.44-2.95-.81-4.57-1.11-1.61-.3-3.32-.52-5.11-.67-1.79-.15-3.68-.22-5.66-.22s-3.86,.07-5.66,.22c-1.8,.15-3.5,.37-5.12,.67-1.62,.3-3.14,.67-4.58,1.11-1.44,.44-2.78,.96-4.04,1.55-1.26,.59-2.42,1.26-3.5,2-1.08,.74-2.06,1.55-2.96,2.44-.9,.89-1.72,1.86-2.47,2.93s-1.42,2.22-2.02,3.46c-.6,1.24-1.12,2.57-1.57,3.99-.45,1.42-.82,2.93-1.12,4.53-.3,1.6-.52,3.28-.67,5.06-.15,1.78-.22,3.64-.22,5.59v62.39c0,1.95,.07,3.82,.22,5.59,.15,1.78,.37,3.46,.67,5.06,.3,1.6,.67,3.11,1.12,4.53,.45,1.42,.97,2.75,1.57,3.99,.6,1.24,1.27,2.4,2.02,3.46s1.57,1.88,2.47,2.93c.34,.39,.69,1.27,1.05,2.48,.36,1.21,.74,2.76,1.12,4.53s.79,3.75,1.2,5.85c.41,2.1,.84,4.32,1.27,6.59,.44,2.27,.89,4.58,1.35,6.87,.46,2.3,.94,4.59,1.43,6.82s.99,4.42,1.5,6.52,1.04,4.12,1.58,6.03,1.09,3.73,1.65,5.42c.56,1.7,1.14,3.28,1.73,4.74s1.19,2.81,1.81,4.02c.61,1.22,1.24,2.31,1.88,3.29,.64,.97,1.29,1.82,1.96,2.54s1.34,1.33,2.03,1.81c.69,.48,1.39,.84,2.11,1.08,.72,.24,1.44,.36,2.19,.36s1.47-.12,2.19-.36c.72-.24,1.42-.6,2.11-1.08,.69-.48,1.37-1.08,2.03-1.81,.66-.73,1.32-1.57,1.96-2.54,.64-.97,1.27-2.07,1.88-3.29s1.21-2.56,1.8-4.02,1.16-3.05,1.73-4.74c.56-1.7,1.11-3.51,1.65-5.42,.54-1.91,1.06-3.93,1.57-6.03,.51-2.1,1.01-4.28,1.5-6.52,.49-2.23,.96-4.52,1.42-6.82s.91-4.61,1.34-6.87c.43-2.27,.86-4.49,1.27-6.59,.41-2.1,.81-4.08,1.19-5.85,.38-1.77,.75-3.32,1.11-4.53,.36-1.21,.7-2.09,1.04-2.48,.89-1.05,1.7-1.87,2.44-2.93s1.4-2.22,1.99-3.46c.59-1.24,1.11-2.57,1.55-3.99,.44-1.42,.81-2.93,1.11-4.53,.3-1.6,.52-3.28,.66-5.06,.15-1.78,.22-3.64,.22-5.59v-62.39Z"/><path class="d" d="M1014.9,46.98V306.92h-4.59V46.98h4.59Z"/><path class="d" d="M1127.71,70.12h-4.59v-17.76h4.59v17.76Zm-4.59,16.32h4.59v220.48h-4.59V86.44Z"/><path class="d" d="M1309.29,187.58c0,1.46-.04,2.88-.12,4.25-.08,1.37-.19,2.7-.35,3.99-.16,1.28-.35,2.52-.58,3.72-.23,1.2-.51,2.35-.82,3.45s-.66,2.17-1.05,3.19c-.39,1.02-.82,1.99-1.28,2.92-.47,.93-.97,1.82-1.52,2.66s-1.13,1.03-1.75,4.05c-.62,3.02-1.28,8.01-1.98,13.67-.31,2.55-.64,5.25-.97,8.04s-.67,5.65-1.02,8.54-.71,5.79-1.07,8.67c-.37,2.88-.74,5.73-1.12,8.51-.38,2.79-.77,5.51-1.17,8.14-.4,2.63-.81,5.17-1.22,7.6-.42,2.43-.84,4.76-1.28,6.96-.43,2.21-.88,4.3-1.33,6.26-.45,1.97-.91,3.81-1.38,5.54-.47,1.73-.94,3.33-1.43,4.82-.48,1.49-.98,2.86-1.48,4.13-.5,1.26-1.01,2.42-1.53,3.47-.52,1.06-1.05,2.01-1.58,2.88s-1.08,1.64-1.63,2.34c-.55,.69-1.11,1.31-1.68,1.85-.57,.54-1.15,1.02-1.73,1.43s-1.18,.76-1.78,1.05c-.6,.29-1.21,.53-1.84,.72s-1.25,.33-1.89,.42c-.64,.09-1.28,.14-1.94,.14s-1.3-.05-1.94-.14c-.64-.09-1.27-.23-1.89-.42-.62-.19-1.23-.43-1.84-.72-.6-.29-1.2-.64-1.79-1.05s-1.17-.88-1.74-1.43c-.57-.54-1.13-1.16-1.69-1.85-.55-.69-1.1-1.47-1.63-2.34-.54-.87-1.06-1.82-1.58-2.88-.52-1.06-1.03-2.21-1.53-3.47-.5-1.26-1-2.64-1.48-4.13-.49-1.49-.96-3.09-1.43-4.82-.47-1.73-.93-3.57-1.38-5.54s-.9-4.06-1.33-6.26c-.44-2.21-.86-4.53-1.28-6.96-.42-2.43-.83-4.97-1.23-7.6-.4-2.63-.8-5.35-1.18-8.14-.39-2.79-.76-5.63-1.13-8.51-.37-2.88-.73-5.78-1.08-8.67-.35-2.89-.69-5.75-1.03-8.54-.33-2.79-.66-5.49-.98-8.04-.71-5.66-1.37-10.65-2-13.67-.63-3.02-1.22-3.21-1.77-4.05-.55-.84-1.06-1.73-1.53-2.66-.47-.93-.9-1.9-1.3-2.92-.39-1.02-.75-2.08-1.06-3.19s-.59-2.26-.82-3.45c-.24-1.2-.43-2.44-.59-3.72-.16-1.28-.27-2.61-.35-3.99-.08-1.37-.12-2.79-.12-4.25v-62.39c0-1.88,.06-3.68,.19-5.42s.32-3.39,.58-4.98c.26-1.59,.58-3.1,.97-4.54,.39-1.44,.84-2.81,1.36-4.1s1.1-2.51,1.75-3.66,1.36-2.22,2.14-3.22c.78-1,1.62-1.93,2.53-2.78,.91-.85,1.88-1.65,2.93-2.38,1.05-.73,2.16-1.4,3.34-2.01,1.18-.61,2.43-1.16,3.75-1.65,1.32-.49,2.71-.92,4.17-1.28,1.46-.37,2.98-.67,4.58-.92s3.26-.43,4.99-.55c1.73-.12,3.53-.18,5.4-.18s3.67,.06,5.4,.18,3.39,.31,4.98,.55,3.11,.55,4.57,.92c1.45,.37,2.84,.79,4.15,1.28,1.32,.49,2.56,1.04,3.74,1.65,1.18,.61,2.28,1.28,3.32,2.01,1.04,.73,2.01,1.53,2.91,2.38,.9,.85,1.73,1.78,2.51,2.78,.77,1,1.48,2.07,2.12,3.22s1.22,2.37,1.73,3.66c.51,1.29,.96,2.66,1.35,4.1,.39,1.44,.71,2.95,.96,4.54s.45,3.25,.58,4.98,.19,3.54,.19,5.42v62.39Zm-4.77-62.39c0-1.95-.07-3.82-.22-5.59-.15-1.78-.37-3.46-.66-5.06-.3-1.6-.66-3.11-1.11-4.53-.44-1.42-.96-2.75-1.55-3.99-.59-1.24-1.26-2.4-1.99-3.46s-1.55-2.04-2.44-2.93c-.89-.89-1.86-1.7-2.93-2.44-1.07-.74-2.23-1.4-3.48-2-1.25-.59-2.59-1.11-4.02-1.55-1.43-.44-2.95-.81-4.57-1.11-1.61-.3-3.32-.52-5.11-.67-1.8-.15-3.68-.22-5.66-.22s-3.86,.07-5.66,.22-3.5,.37-5.12,.67c-1.62,.3-3.14,.67-4.58,1.11-1.44,.44-2.78,.96-4.04,1.55-1.26,.59-2.42,1.26-3.5,2-1.08,.74-2.06,1.55-2.96,2.44-.9,.89-1.72,1.86-2.47,2.93-.75,1.06-1.42,2.22-2.02,3.46-.6,1.24-1.12,2.57-1.57,3.99-.45,1.42-.82,2.93-1.12,4.53-.3,1.6-.52,3.28-.67,5.06-.15,1.78-.22,3.64-.22,5.59v62.39c0,1.95,.07,3.82,.22,5.59,.15,1.78,.37,3.46,.67,5.06,.3,1.6,.67,3.11,1.12,4.53,.45,1.42,.97,2.75,1.57,3.99,.6,1.24,1.27,2.4,2.02,3.46,.75,1.06,1.57,1.88,2.47,2.93,.34,.39,.69,1.27,1.05,2.48,.36,1.21,.74,2.76,1.12,4.53,.39,1.77,.79,3.75,1.2,5.85,.41,2.1,.84,4.32,1.27,6.59,.44,2.27,.89,4.58,1.35,6.87s.94,4.59,1.43,6.82c.49,2.23,.99,4.42,1.5,6.52,.51,2.1,1.04,4.12,1.58,6.03,.54,1.91,1.09,3.73,1.65,5.42s1.14,3.28,1.73,4.74,1.19,2.81,1.81,4.02c.61,1.22,1.24,2.31,1.88,3.29,.64,.97,1.29,1.82,1.96,2.54s1.34,1.33,2.03,1.81c.69,.48,1.39,.84,2.11,1.08,.72,.24,1.44,.36,2.19,.36s1.47-.12,2.19-.36c.72-.24,1.42-.6,2.11-1.08,.69-.48,1.37-1.08,2.03-1.81,.66-.73,1.32-1.57,1.96-2.54,.64-.97,1.27-2.07,1.88-3.29s1.21-2.56,1.8-4.02,1.16-3.05,1.73-4.74c.56-1.7,1.11-3.51,1.65-5.42,.54-1.91,1.06-3.93,1.57-6.03s1.01-4.28,1.5-6.52,.96-4.52,1.42-6.82c.46-2.3,.91-4.61,1.34-6.87,.43-2.27,.86-4.49,1.27-6.59,.41-2.1,.81-4.08,1.19-5.85,.38-1.77,.75-3.32,1.11-4.53,.36-1.21,.7-2.09,1.04-2.48,.89-1.05,1.7-1.87,2.44-2.93s1.4-2.22,1.99-3.46c.59-1.24,1.11-2.57,1.55-3.99,.44-1.42,.81-2.93,1.11-4.53,.3-1.6,.52-3.28,.66-5.06,.15-1.78,.22-3.64,.22-5.59v-62.39Z"/></g><text class="c" transform="translate(16.89 426.63)"><tspan class="f" x="0" y="0">De</tspan><tspan class="e" x="98.86" y="0">v</tspan><tspan class="f" x="144.64" y="0">elopment - Design - Leisu</tspan><tspan class="b" x="1267.91" y="0">r</tspan><tspan class="f" x="1309.57" y="0">e </tspan></text></svg>