<?xml version="1.0" encoding="UTF-8"?><svg xmlns="http://www.w3.org/2000/svg" viewBox="0 0 1572.44 323.63"><defs><style>.d{fill:#fff;stroke:#fff;stroke-miterlimit:10;stroke-width:6px;}</style></defs><g id="a"/><g id="b"><g id="c"><g><path class="d" d="M197.91,21.06c1.86,0,3.64,.05,5.36,.16,1.72,.1,3.37,.26,4.95,.47,1.58,.21,3.1,.47,4.54,.78s2.82,.68,4.13,1.09,2.55,.88,3.72,1.4c1.47,.65,2.85,1.35,4.14,2.09,1.3,.75,2.51,1.54,3.64,2.38,1.13,.84,2.17,1.73,3.14,2.67,.96,.94,1.85,1.92,2.63,2.96,.8,1.05,1.52,2.16,2.19,3.29,.67,1.13,1.27,2.29,1.81,3.49s1.02,2.42,1.44,3.69c.42,1.26,.77,2.56,1.06,3.89,.29,1.33,.54,2.66,.76,4s.4,2.68,.54,4.02c.15,1.34,.25,2.69,.33,4.04,.07,1.35,.11,2.7,.11,4.06s-.04,2.66-.11,3.99c-.07,1.33-.18,2.66-.33,3.99-.15,1.33-.33,2.66-.54,3.99s-.47,2.66-.76,3.99c-.29,1.33-.64,2.62-1.06,3.89s-.89,2.49-1.44,3.69-1.15,2.36-1.81,3.49c-.67,1.13-1.4,2.24-2.19,3.29-.81,1.06-1.73,2.08-2.71,3.04-.98,.96-2.04,1.88-3.18,2.74-1.14,.86-2.35,1.68-3.65,2.44-1.29,.76-2.66,1.48-4.11,2.14-1.16,.53-2.39,1.01-3.69,1.44-1.3,.43-2.67,.8-4.11,1.12-1.44,.32-2.95,.58-4.52,.8-1.58,.21-3.22,.37-4.94,.48-1.72,.11-3.5,.16-5.36,.16h-36.63v164.89h-4.94V21.06h41.57Zm-.73,84.5c1.71,0,3.35-.04,4.93-.13,1.58-.09,3.09-.22,4.55-.4s2.84-.4,4.16-.67c1.32-.27,2.58-.58,3.77-.94,1.19-.36,2.32-.76,3.38-1.21,1.33-.56,2.58-1.17,3.76-1.83,1.18-.66,2.28-1.36,3.31-2.11,1.03-.75,1.99-1.55,2.87-2.4s1.69-1.75,2.42-2.69c.94-1.21,1.77-2.5,2.5-3.85,.73-1.35,1.36-2.75,1.89-4.22s.96-3,1.28-4.6c.33-1.59,.6-3.2,.81-4.81,.22-1.61,.38-3.24,.49-4.87,.11-1.63,.16-3.28,.16-4.93s-.05-3.3-.16-4.93c-.11-1.63-.27-3.26-.49-4.87s-.49-3.22-.81-4.81c-.33-1.59-.75-3.14-1.28-4.64-.53-1.5-1.16-2.94-1.89-4.34-.73-1.4-1.56-2.79-2.5-4.05-.7-.94-1.54-1.84-2.42-2.7s-1.84-1.66-2.87-2.42c-1.03-.76-2.13-1.47-3.31-2.14-1.18-.67-2.43-1.29-3.76-1.87-1.06-.46-2.19-.88-3.38-1.24-1.19-.37-2.45-.69-3.77-.97-1.32-.28-2.71-.51-4.16-.69-1.45-.18-2.97-.32-4.55-.41-1.58-.09-3.22-.14-4.93-.14h-35.89V105.56h35.89Z"/><path class="d" d="M416.39,164.37c0,1.62-.05,3.19-.15,4.71s-.25,2.97-.44,4.37c-.2,1.4-.44,2.75-.74,4.04-.29,1.29-.64,2.53-1.03,3.71-.39,1.18-.84,2.31-1.33,3.38-.49,1.07-1.03,2.09-1.62,3.04s-1.23,1.86-1.92,2.71c-.69,.85-1.42,4.81-2.21,9.98-.31,2.07-.64,4.34-.97,6.75-.33,2.41-.67,4.94-1.02,7.54s-.71,5.26-1.07,7.94-.74,5.36-1.12,8.02c-.38,2.66-.77,5.28-1.17,7.85-.4,2.57-.81,5.07-1.22,7.5s-.84,4.76-1.27,7.01c-.43,2.24-.87,4.39-1.32,6.43-.45,2.04-.91,3.98-1.38,5.8-.47,1.83-.94,3.55-1.43,5.16s-.98,3.11-1.48,4.51c-.5,1.4-1.01,2.69-1.53,3.88-.52,1.19-1.04,2.29-1.58,3.29-.53,1-1.08,1.91-1.63,2.73-.55,.82-1.11,1.56-1.68,2.22-.57,.66-1.15,1.24-1.73,1.75-.59,.51-1.18,.94-1.78,1.31-.6,.37-1.21,.67-1.83,.91-.62,.24-1.25,.42-1.88,.54-.64,.12-1.28,.18-1.93,.18s-1.3-.06-1.93-.18c-.64-.12-1.26-.3-1.88-.54-.62-.24-1.23-.54-1.83-.91-.6-.37-1.2-.8-1.78-1.31s-1.16-1.09-1.73-1.75c-.57-.66-1.13-1.39-1.68-2.22-.55-.82-1.1-1.73-1.63-2.73s-1.06-2.09-1.58-3.29c-.52-1.19-1.03-2.49-1.53-3.88-.5-1.4-1-2.9-1.48-4.51s-.96-3.33-1.43-5.16-.93-3.76-1.38-5.8c-.45-2.04-.9-4.19-1.33-6.43-.43-2.24-.86-4.58-1.28-7.01s-.83-4.93-1.23-7.5c-.4-2.57-.79-5.19-1.18-7.85-.38-2.66-.76-5.34-1.13-8.02-.37-2.68-.73-5.34-1.08-7.94-.35-2.6-.69-5.14-1.03-7.54s-.66-4.68-.98-6.75c-.79-5.17-1.54-9.13-2.23-9.98-.69-.85-1.34-1.75-1.93-2.71s-1.14-1.97-1.64-3.04-.94-2.2-1.34-3.38c-.4-1.18-.74-2.42-1.04-3.71s-.55-2.64-.74-4.04c-.2-1.4-.35-2.86-.45-4.37s-.15-3.08-.15-4.71v-62c0-1.86,.06-3.64,.19-5.35,.13-1.71,.32-3.35,.58-4.92,.26-1.57,.58-3.06,.97-4.48s.84-2.77,1.36-4.05c.52-1.28,1.1-2.48,1.75-3.62,.65-1.13,1.36-2.19,2.14-3.18,.78-.99,1.62-1.9,2.53-2.75,.91-.84,1.88-1.63,2.93-2.35s2.16-1.39,3.34-1.99c1.18-.6,2.43-1.14,3.75-1.63,1.32-.48,2.7-.9,4.16-1.27,1.46-.36,2.98-.66,4.57-.9s3.25-.42,4.98-.54c1.73-.12,3.53-.18,5.39-.18s3.66,.06,5.39,.18c1.73,.12,3.39,.3,4.98,.54s3.11,.54,4.56,.9,2.83,.78,4.15,1.27c1.31,.48,2.56,1.02,3.73,1.63,1.17,.6,2.28,1.27,3.32,1.99s2,1.51,2.9,2.35c.9,.84,1.73,1.76,2.5,2.75s1.48,2.05,2.12,3.18c.64,1.13,1.22,2.34,1.73,3.62,.51,1.28,.96,2.63,1.35,4.05,.39,1.42,.71,2.92,.96,4.48,.26,1.57,.45,3.21,.58,4.92s.19,3.49,.19,5.35v62Zm-4.76-62c0-1.93-.07-3.77-.22-5.52s-.37-3.42-.66-5-.66-3.07-1.11-4.47-.96-2.72-1.55-3.94-1.25-2.37-1.99-3.42c-.74-1.05-1.55-2.02-2.43-2.89-.89-.88-1.86-1.68-2.93-2.41-1.07-.73-2.22-1.39-3.47-1.97-1.25-.58-2.59-1.09-4.02-1.53-1.43-.44-2.95-.8-4.56-1.1-1.61-.29-3.31-.51-5.1-.66-1.79-.15-3.68-.22-5.65-.22s-3.86,.07-5.65,.22c-1.79,.15-3.5,.37-5.11,.66-1.61,.29-3.14,.66-4.57,1.1-1.43,.44-2.78,.95-4.03,1.53-1.25,.58-2.42,1.24-3.49,1.97-1.07,.73-2.06,1.53-2.96,2.41-.9,.88-1.72,1.84-2.46,2.89-.75,1.05-1.42,2.19-2.01,3.42-.6,1.23-1.12,2.54-1.57,3.94-.45,1.4-.82,2.89-1.12,4.47s-.52,3.24-.67,5-.22,3.59-.22,5.52v62c0,1.93,.07,3.77,.22,5.52s.37,3.42,.67,5,.67,3.07,1.12,4.47c.45,1.4,.97,2.72,1.57,3.94,.6,1.23,1.27,2.37,2.01,3.42,.75,1.05,1.57,2.02,2.46,2.89,.38,.38,.78,.56,1.2,1.28s.85,1.93,1.3,3.46c.45,1.53,.92,3.37,1.4,5.38,.48,2.01,.98,4.2,1.5,6.46,.52,2.26,1.05,4.58,1.6,6.89,.55,2.31,1.11,4.61,1.7,6.84,.58,2.23,1.18,4.4,1.79,6.46,.61,2.06,1.25,4.01,1.89,5.84,.65,1.82,1.31,3.52,1.99,5.07,.68,1.55,1.38,2.95,2.09,4.21,.71,1.25,1.44,2.35,2.19,3.29s1.51,1.73,2.29,2.36c.78,.63,1.58,1.1,2.39,1.42s1.64,.47,2.49,.47,1.67-.16,2.49-.47c.81-.31,1.61-.79,2.39-1.42,.78-.63,1.54-1.42,2.29-2.36,.75-.94,1.48-2.04,2.19-3.29s1.41-2.66,2.09-4.21c.68-1.55,1.34-3.24,1.99-5.07,.65-1.82,1.28-3.78,1.89-5.84s1.21-4.23,1.79-6.46c.58-2.23,1.14-4.53,1.69-6.84,.55-2.31,1.08-4.63,1.59-6.89,.51-2.26,1.01-4.44,1.49-6.46,.48-2.01,.94-3.85,1.39-5.38,.45-1.53,.88-2.74,1.29-3.46s.81-.9,1.19-1.28c.89-.88,1.7-1.84,2.43-2.89,.74-1.05,1.4-2.19,1.99-3.42s1.11-2.54,1.55-3.94c.44-1.4,.81-2.89,1.11-4.47s.52-3.24,.66-5,.22-3.59,.22-5.52v-62Z"/><path class="d" d="M519.86,84.12c.64-1.36,1.35-2.65,2.14-3.89,.79-1.23,1.64-2.4,2.58-3.51s1.93-2.15,3.01-3.13c1.08-.98,2.22-1.9,3.45-2.76,1.22-.86,2.52-1.62,3.89-2.28s2.82-1.23,4.35-1.71,3.13-.85,4.81-1.13,3.44-.46,5.27-.55c1.54-.08,2.97-.1,4.27-.08,1.3,.03,2.48,.1,3.54,.24,1.06,.13,1.99,.31,2.81,.55,1.22,.35,2.3,.71,3.25,1.06,.95,.35,1.76,.71,2.43,1.06-.59,1.56-.88,2.34-1.47,3.9-1.26-.63-2.64-1.15-4.13-1.55-1.49-.41-3.1-.7-4.82-.89-1.72-.18-3.57-.26-5.51-.22-1.5,.03-2.96,.17-4.36,.38-1.4,.22-2.74,.52-4.03,.92s-2.52,.88-3.7,1.45c-1.18,.57-2.3,1.19-3.36,1.86-1.06,.67-2.06,1.39-2.99,2.16-.94,.77-1.81,1.59-2.62,2.45-.85,.91-1.65,1.84-2.38,2.81s-1.4,1.96-2.01,2.98c-.61,1.02-1.16,2.08-1.65,3.16-.49,1.08-.92,2.16-1.28,3.24-.37,1.08-.67,2.15-.92,3.22-.24,1.07-.43,2.14-.55,3.2v178h-4.4V66.94h4.4v17.18Z"/><path class="d" d="M673.13,42.49v24.45h27.29v4.43h-27.29v106.47c0,1.3,.04,2.53,.13,3.68s.22,2.24,.39,3.26c.17,1.01,.39,1.96,.65,2.83,.26,.87,.56,1.67,.91,2.4,.35,.73,.74,2.54,1.17,5.68,.43,3.15,.91,7.06,1.43,10.81,.31,2.25,.64,4.57,.98,6.87s.7,4.59,1.07,6.8c.37,2.22,.76,4.37,1.16,6.41,.4,2.04,.82,3.98,1.25,5.79,.43,1.81,.88,3.49,1.34,5.02,.46,1.54,.94,2.93,1.43,4.17,.49,1.24,1,2.33,1.52,3.26,.52,.93,1.06,1.71,1.61,2.34,.55,.62,1.12,1.09,1.7,1.4,.58,.31,1.18,.47,1.79,.47,1.04,0,2.1-.44,3.18-1.31,1.08-.87,2.2-2.17,3.32-3.89,.75-1.15,1.47-2.42,2.17-3.8,.69-1.38,1.35-2.86,1.98-4.44,.63-1.58,1.23-3.26,1.8-5.03,.02,1.95,.05,3.82,.07,5.61,.02,1.8,.04,3.52,.06,5.2,.02,1.67,.04,3.29,.06,4.87s.04,3.12,.06,4.65c.02,1.53,.04,3.04,.06,4.56,.02,1.52,.04,3.04,.06,4.59s.04,3.12,.06,4.74c.02,1.62,.04,3.27,.06,4.98,.02,1.71,.05,3.47,.07,5.29-.49,1.86-1.04,3.51-1.65,4.97-.61,1.46-1.28,2.75-2.01,3.86-.73,1.11-1.46,2.05-2.2,2.84-.73,.79-1.47,1.44-2.2,1.95-1.45,1-2.91,1.74-4.3,2.22-1.39,.48-2.54,.71-3.39,.71-.49-.2-.97-.47-1.44-.81s-.93-.75-1.39-1.24c-.45-.49-.9-1.05-1.34-1.7s-.87-1.38-1.29-2.21c-.42-.82-.83-1.74-1.23-2.76-.4-1.02-.8-2.14-1.18-3.37-.39-1.23-.76-2.57-1.13-4.02s-.73-3.02-1.08-4.71c-.35-1.69-.69-3.5-1.03-5.43s-.66-3.98-.98-6.15c-.32-2.17-.63-4.45-.93-6.84-.3-2.39-.59-4.89-.87-7.47-.28-2.58-.56-5.26-.82-7.99-.27-2.73-.52-5.53-.77-8.34-.32-3.58-.62-7.27-.91-10.93s-.56-7.29-.82-10.7-.5-6.6-.73-9.28c-.23-2.69-.45-4.87-.65-6.18-.2-1.31-.39-1.51-.56-2.02s-.33-1.04-.47-1.59c-.14-.55-.27-1.12-.39-1.71-.11-.59-.22-1.2-.3-1.82-.09-.63-.16-1.27-.22-1.94-.06-.66-.1-1.35-.13-2.05-.03-.7-.04-1.42-.04-2.17V71.37h-21.06v-4.43h21.06v-24.45h4.94Z"/><path class="d" d="M831.36,26.55c-2.08,0-3.94,.17-5.61,.5s-3.12,.84-4.37,1.51c-1.25,.67-2.29,1.51-3.12,2.51-.63,.75-1.17,1.61-1.64,2.59-.47,.97-.86,2.05-1.17,3.24-.31,1.19-.55,2.49-.7,3.89-.16,1.41-.23,2.92-.23,4.54v21.61h29.67v4.43h-29.67v203.69h-4.94V71.37h-21.43v-4.43h21.43v-21.61c0-1.71,.1-3.34,.29-4.9s.49-3.03,.88-4.42,.88-2.71,1.46-3.95c.58-1.24,1.26-2.39,2.04-3.47,.78-1.08,1.7-2.02,2.75-2.83,1.06-.81,2.25-1.48,3.59-2.02,1.34-.54,2.81-.94,4.42-1.21,1.61-.27,3.37-.4,5.26-.4h13.18v4.43h-12.09Z"/><path class="d" d="M1014.67,164.37c0,1.62-.05,3.19-.15,4.71-.1,1.51-.25,2.97-.44,4.37-.2,1.4-.44,2.75-.74,4.04s-.64,2.53-1.03,3.71c-.39,1.18-.83,2.31-1.33,3.38s-1.03,2.09-1.62,3.04c-.59,.96-1.23,1.86-1.92,2.71-.69,.85-1.42,4.81-2.21,9.98-.31,2.07-.64,4.34-.97,6.75-.33,2.41-.67,4.94-1.02,7.54-.35,2.6-.71,5.26-1.07,7.94-.37,2.68-.74,5.36-1.12,8.02-.38,2.66-.77,5.28-1.17,7.85-.4,2.57-.81,5.07-1.22,7.5-.42,2.42-.84,4.76-1.27,7.01-.43,2.24-.87,4.39-1.32,6.43-.45,2.04-.91,3.98-1.38,5.8s-.94,3.55-1.43,5.16-.98,3.11-1.48,4.51c-.5,1.4-1.01,2.69-1.53,3.88-.52,1.19-1.04,2.29-1.58,3.29s-1.08,1.91-1.63,2.73-1.11,1.56-1.68,2.22c-.57,.66-1.15,1.24-1.73,1.75-.59,.51-1.18,.94-1.78,1.31s-1.21,.67-1.83,.91c-.62,.24-1.25,.42-1.88,.54-.64,.12-1.28,.18-1.93,.18s-1.3-.06-1.93-.18c-.64-.12-1.26-.3-1.88-.54-.62-.24-1.23-.54-1.83-.91s-1.2-.8-1.78-1.31c-.59-.51-1.16-1.09-1.73-1.75-.57-.66-1.13-1.39-1.68-2.22s-1.1-1.73-1.63-2.73c-.54-1-1.06-2.09-1.58-3.29-.52-1.19-1.03-2.49-1.53-3.88-.5-1.4-1-2.9-1.48-4.51-.49-1.61-.96-3.33-1.43-5.16s-.93-3.76-1.38-5.8c-.45-2.04-.9-4.19-1.33-6.43-.43-2.24-.86-4.58-1.28-7.01s-.83-4.93-1.23-7.5c-.4-2.57-.79-5.19-1.18-7.85-.38-2.66-.76-5.34-1.13-8.02-.37-2.68-.73-5.34-1.08-7.94-.35-2.6-.69-5.14-1.03-7.54-.33-2.41-.66-4.68-.98-6.75-.79-5.17-1.54-9.13-2.23-9.98-.69-.85-1.34-1.75-1.93-2.71-.6-.96-1.14-1.97-1.64-3.04-.5-1.07-.94-2.2-1.34-3.38-.4-1.18-.74-2.42-1.04-3.71s-.55-2.64-.74-4.04c-.2-1.4-.35-2.86-.45-4.37-.1-1.51-.15-3.08-.15-4.71v-62c0-1.86,.06-3.64,.19-5.35,.13-1.71,.32-3.35,.58-4.92,.26-1.57,.58-3.06,.97-4.48,.39-1.42,.84-2.77,1.36-4.05,.52-1.28,1.1-2.48,1.75-3.62,.65-1.13,1.36-2.19,2.14-3.18s1.62-1.9,2.53-2.75c.91-.84,1.88-1.63,2.93-2.35s2.16-1.39,3.34-1.99c1.18-.6,2.43-1.14,3.75-1.63,1.32-.48,2.7-.9,4.16-1.27,1.46-.36,2.98-.66,4.57-.9s3.25-.42,4.98-.54c1.73-.12,3.53-.18,5.39-.18s3.66,.06,5.39,.18c1.73,.12,3.39,.3,4.98,.54,1.59,.24,3.11,.54,4.56,.9s2.83,.78,4.15,1.27c1.31,.48,2.56,1.02,3.73,1.63,1.17,.6,2.28,1.27,3.32,1.99,1.04,.72,2,1.51,2.9,2.35,.9,.84,1.73,1.76,2.5,2.75,.77,.99,1.48,2.05,2.12,3.18,.64,1.13,1.22,2.34,1.73,3.62,.51,1.28,.96,2.63,1.35,4.05s.71,2.92,.96,4.48c.26,1.57,.45,3.21,.58,4.92s.19,3.49,.19,5.35v62Zm-4.76-62c0-1.93-.07-3.77-.22-5.52-.15-1.75-.37-3.42-.66-5s-.66-3.07-1.11-4.47c-.44-1.4-.96-2.72-1.55-3.94s-1.25-2.37-1.99-3.42c-.74-1.05-1.55-2.02-2.43-2.89-.89-.88-1.86-1.68-2.93-2.41-1.07-.73-2.22-1.39-3.47-1.97-1.25-.58-2.59-1.09-4.02-1.53-1.43-.44-2.95-.8-4.56-1.1-1.61-.29-3.31-.51-5.1-.66-1.79-.15-3.67-.22-5.65-.22s-3.86,.07-5.65,.22c-1.79,.15-3.5,.37-5.11,.66-1.61,.29-3.14,.66-4.57,1.1-1.43,.44-2.78,.95-4.03,1.53-1.25,.58-2.42,1.24-3.49,1.97-1.07,.73-2.06,1.53-2.96,2.41-.9,.88-1.72,1.84-2.46,2.89-.75,1.05-1.42,2.19-2.01,3.42-.6,1.23-1.12,2.54-1.57,3.94-.45,1.4-.82,2.89-1.12,4.47s-.52,3.24-.67,5c-.15,1.75-.22,3.59-.22,5.52v62c0,1.93,.07,3.77,.22,5.52,.15,1.75,.37,3.42,.67,5s.67,3.07,1.12,4.47c.45,1.4,.97,2.72,1.57,3.94,.6,1.23,1.27,2.37,2.01,3.42,.75,1.05,1.57,2.02,2.46,2.89,.38,.38,.78,.56,1.2,1.28s.85,1.93,1.3,3.46c.45,1.53,.92,3.37,1.4,5.38s.98,4.2,1.5,6.46c.52,2.26,1.05,4.58,1.6,6.89,.55,2.31,1.11,4.61,1.7,6.84,.58,2.23,1.18,4.4,1.79,6.46,.61,2.06,1.25,4.01,1.89,5.84,.65,1.82,1.31,3.52,1.99,5.07,.68,1.55,1.38,2.95,2.09,4.21s1.44,2.35,2.19,3.29c.75,.94,1.51,1.73,2.29,2.36,.78,.63,1.58,1.1,2.39,1.42s1.64,.47,2.49,.47,1.67-.16,2.49-.47,1.61-.79,2.39-1.42c.78-.63,1.54-1.42,2.29-2.36,.75-.94,1.48-2.04,2.19-3.29,.71-1.25,1.41-2.66,2.09-4.21,.68-1.55,1.34-3.24,1.99-5.07,.65-1.82,1.28-3.78,1.89-5.84,.61-2.06,1.21-4.23,1.79-6.46,.58-2.23,1.14-4.53,1.69-6.84s1.08-4.63,1.59-6.89c.51-2.26,1.01-4.44,1.49-6.46s.94-3.85,1.39-5.38c.45-1.53,.88-2.74,1.29-3.46,.41-.72,.81-.9,1.19-1.28,.89-.88,1.7-1.84,2.43-2.89,.74-1.05,1.4-2.19,1.99-3.42s1.11-2.54,1.55-3.94c.44-1.4,.81-2.89,1.11-4.47s.52-3.24,.66-5c.15-1.75,.22-3.59,.22-5.52v-62Z"/><path class="d" d="M1122.17,25.13v249.93h-4.58V25.13h4.58Z"/><path class="d" d="M1234.8,47.99h-4.58V30.45h4.58v17.54Zm-4.58,16.12h4.58v210.95h-4.58V64.11Z"/><path class="d" d="M1416.1,164.37c0,1.62-.05,3.19-.15,4.71s-.25,2.97-.44,4.37c-.2,1.4-.44,2.75-.74,4.04-.29,1.29-.64,2.53-1.03,3.71-.39,1.18-.84,2.31-1.33,3.38s-1.03,2.09-1.62,3.04c-.59,.96-1.23,1.86-1.92,2.71-.69,.85-1.42,4.81-2.21,9.98-.31,2.07-.64,4.34-.97,6.75s-.67,4.94-1.02,7.54c-.35,2.6-.71,5.26-1.07,7.94s-.74,5.36-1.12,8.02c-.38,2.66-.77,5.28-1.17,7.85-.4,2.57-.81,5.07-1.22,7.5s-.84,4.76-1.27,7.01c-.43,2.24-.87,4.39-1.32,6.43-.45,2.04-.91,3.98-1.38,5.8-.47,1.83-.94,3.55-1.43,5.16s-.98,3.11-1.48,4.51c-.5,1.4-1.01,2.69-1.53,3.88-.52,1.19-1.04,2.29-1.58,3.29s-1.08,1.91-1.63,2.73c-.55,.82-1.11,1.56-1.68,2.22-.57,.66-1.15,1.24-1.73,1.75s-1.18,.94-1.78,1.31-1.21,.67-1.83,.91c-.62,.24-1.25,.42-1.88,.54-.64,.12-1.28,.18-1.93,.18s-1.3-.06-1.93-.18c-.64-.12-1.26-.3-1.88-.54-.62-.24-1.23-.54-1.83-.91s-1.2-.8-1.78-1.31-1.16-1.09-1.73-1.75c-.57-.66-1.13-1.39-1.68-2.22-.55-.82-1.1-1.73-1.63-2.73-.54-1-1.06-2.09-1.58-3.29-.52-1.19-1.03-2.49-1.53-3.88-.5-1.4-1-2.9-1.48-4.51s-.96-3.33-1.43-5.16c-.47-1.83-.93-3.76-1.38-5.8-.45-2.04-.9-4.19-1.33-6.43-.43-2.24-.86-4.58-1.28-7.01-.42-2.42-.83-4.93-1.23-7.5-.4-2.57-.79-5.19-1.18-7.85-.38-2.66-.76-5.34-1.13-8.02-.37-2.68-.73-5.34-1.08-7.94s-.69-5.14-1.03-7.54-.66-4.68-.98-6.75c-.79-5.17-1.54-9.13-2.23-9.98-.69-.85-1.34-1.75-1.93-2.71-.6-.96-1.14-1.97-1.64-3.04s-.94-2.2-1.34-3.38c-.4-1.18-.74-2.42-1.04-3.71-.3-1.29-.55-2.64-.74-4.04-.2-1.4-.35-2.86-.45-4.37s-.15-3.08-.15-4.71v-62c0-1.86,.06-3.64,.19-5.35s.32-3.35,.58-4.92c.26-1.57,.58-3.06,.97-4.48,.39-1.42,.84-2.77,1.36-4.05,.52-1.28,1.1-2.48,1.75-3.62,.65-1.13,1.36-2.19,2.14-3.18,.78-.99,1.62-1.9,2.53-2.75,.91-.84,1.88-1.63,2.93-2.35s2.16-1.39,3.34-1.99c1.18-.6,2.43-1.14,3.75-1.63,1.32-.48,2.7-.9,4.16-1.27,1.46-.36,2.98-.66,4.57-.9s3.25-.42,4.98-.54c1.73-.12,3.53-.18,5.39-.18s3.66,.06,5.39,.18,3.39,.3,4.98,.54,3.11,.54,4.56,.9,2.83,.78,4.15,1.27c1.31,.48,2.56,1.02,3.73,1.63,1.17,.6,2.28,1.27,3.32,1.99,1.04,.72,2,1.51,2.9,2.35,.9,.84,1.73,1.76,2.5,2.75s1.48,2.05,2.12,3.18c.64,1.13,1.22,2.34,1.73,3.62,.51,1.28,.96,2.63,1.35,4.05,.38,1.42,.71,2.92,.96,4.48,.26,1.57,.45,3.21,.58,4.92,.13,1.71,.19,3.49,.19,5.35v62Zm-4.76-62c0-1.93-.07-3.77-.22-5.52-.15-1.75-.37-3.42-.66-5s-.66-3.07-1.11-4.47c-.44-1.4-.96-2.72-1.55-3.94s-1.25-2.37-1.99-3.42c-.74-1.05-1.55-2.02-2.43-2.89-.89-.88-1.86-1.68-2.93-2.41-1.07-.73-2.22-1.39-3.47-1.97-1.25-.58-2.59-1.09-4.02-1.53-1.43-.44-2.95-.8-4.56-1.1-1.61-.29-3.31-.51-5.1-.66-1.79-.15-3.67-.22-5.65-.22s-3.86,.07-5.65,.22c-1.79,.15-3.5,.37-5.11,.66-1.61,.29-3.14,.66-4.57,1.1-1.43,.44-2.78,.95-4.03,1.53-1.25,.58-2.42,1.24-3.49,1.97-1.07,.73-2.06,1.53-2.96,2.41-.9,.88-1.72,1.84-2.46,2.89-.75,1.05-1.42,2.19-2.01,3.42-.6,1.23-1.12,2.54-1.57,3.94-.45,1.4-.82,2.89-1.12,4.47-.3,1.58-.52,3.24-.67,5-.15,1.75-.22,3.59-.22,5.52v62c0,1.93,.07,3.77,.22,5.52,.15,1.75,.37,3.42,.67,5,.3,1.58,.67,3.07,1.12,4.47,.45,1.4,.97,2.72,1.57,3.94,.6,1.23,1.27,2.37,2.01,3.42,.75,1.05,1.57,2.02,2.46,2.89,.38,.38,.78,.56,1.2,1.28,.42,.72,.85,1.93,1.3,3.46,.45,1.53,.92,3.37,1.4,5.38,.48,2.01,.98,4.2,1.5,6.46,.52,2.26,1.05,4.58,1.6,6.89,.55,2.31,1.11,4.61,1.7,6.84,.58,2.23,1.18,4.4,1.79,6.46,.61,2.06,1.25,4.01,1.89,5.84,.65,1.82,1.31,3.52,1.99,5.07,.68,1.55,1.38,2.95,2.09,4.21s1.44,2.35,2.19,3.29,1.51,1.73,2.29,2.36c.78,.63,1.58,1.1,2.39,1.42s1.64,.47,2.49,.47,1.67-.16,2.49-.47c.81-.31,1.61-.79,2.39-1.42,.78-.63,1.54-1.42,2.29-2.36s1.48-2.04,2.19-3.29c.71-1.25,1.41-2.66,2.09-4.21,.68-1.55,1.34-3.24,1.99-5.07,.65-1.82,1.28-3.78,1.89-5.84s1.21-4.23,1.79-6.46c.58-2.23,1.14-4.53,1.69-6.84s1.08-4.63,1.59-6.89c.51-2.26,1.01-4.44,1.49-6.46,.48-2.01,.94-3.85,1.39-5.38,.45-1.53,.88-2.74,1.29-3.46,.41-.72,.81-.9,1.19-1.28,.89-.88,1.7-1.84,2.43-2.89,.74-1.05,1.4-2.19,1.99-3.42s1.11-2.54,1.55-3.94c.44-1.4,.81-2.89,1.11-4.47s.52-3.24,.66-5c.15-1.75,.22-3.59,.22-5.52v-62Z"/></g></g></g></svg>