<svg xmlns="http://www.w3.org/2000/svg" viewBox="0 0 704.08 705.69"><g id="Layer_2" data-name="Layer 2"><g id="Layer_5" data-name="Layer 5"><path d="M450.1,207.44c-41.49-45.22-135.48-49.9-182.84-.15l-.1.11-.69.73c-.58.61-1.18,1.18-1.78,1.74-45.09,42.06-114.47-29.52-68.51-72.66.37-.35.75-.71,1.15-1.05a103.2,103.2,0,0,1,28.36-18C319.7,78.54,442.11,199.37,450.1,207.44Z"/><path d="M508.38,143.52A272.11,272.11,0,0,0,346.75,89.46,46.71,46.71,0,0,1,309,77.28c-18.68-17.23-20.46-45.67-4-63.53s45-18.39,63.64-1.16a45.57,45.57,0,0,1,4.94,5.3Z"/><path d="M207,248.39c-45.07,41.67-49.4,135.68.53,182.84l.11.1c.25.23.48.46.74.69.6.58,1.18,1.18,1.74,1.78,42.23,44.92-29.09,114.57-72.41,68.78-.35-.37-.7-.75-1-1.15a103,103,0,0,1-18.11-28.3C78.6,379.28,199,256.42,207,248.39Z"/><path d="M142.87,190.36A272,272,0,0,0,89.43,352.19,46.7,46.7,0,0,1,77.38,390c-17.16,18.74-45.59,20.63-63.51,4.22s-18.56-44.9-1.4-63.64a46.32,46.32,0,0,1,5.28-5Z"/><path d="M497.73,456.46c44.82-41.92,48.6-136-1.6-182.83l-.11-.1-.74-.68c-.61-.58-1.19-1.17-1.76-1.77-42.48-44.68,28.43-114.74,72-69.2.35.37.71.75,1.06,1.14a103.17,103.17,0,0,1,18.28,28.19C625.38,324.83,505.72,448.39,497.73,456.46Z"/><path d="M562.21,514.12A272,272,0,0,0,614.71,352a46.72,46.72,0,0,1,11.83-37.91c17.05-18.84,45.47-20.89,63.49-4.59s18.81,44.79,1.77,63.63a46.36,46.36,0,0,1-5.25,5Z"/><path d="M255.05,499.2C296.92,544.07,391,548,437.88,497.81l.1-.1c.23-.25.46-.49.68-.74.58-.61,1.18-1.19,1.77-1.76,44.73-42.43,114.71,28.56,69.13,72.09-.38.35-.76.71-1.15,1.05A103,103,0,0,1,480.2,586.6C386.53,627,263.11,507.21,255.05,499.2Z"/><path d="M197.31,563.62a272,272,0,0,0,162.08,52.69,46.71,46.71,0,0,1,37.89,11.87c18.82,17.07,20.84,45.49,4.52,63.49s-44.81,18.77-63.64,1.7a47.2,47.2,0,0,1-5-5.26Z"/></g></g></svg>