<svg xmlns="http://www.w3.org/2000/svg" viewBox="0 0 366.45 373.38"><defs><style>.cls-1{fill:#010101;}</style></defs><g id="Layer_2" data-name="Layer 2"><g id="Layer_1-2" data-name="Layer 1"><path class="cls-1" d="M151.63,299.74c-48,.51-91.22-49.48-88.24-92.3-1.27,14.27.67,157.17,86.11,161.72C194.31,371.67,195.67,300.16,151.63,299.74Z"/><path class="cls-1" d="M53.34,316.05C26,288.44,6.3,242.92,3.24,208.64L4.4,336.79c-2.85,19,12.08,37.08,30.74,36.58C64.5,372.76,75.84,334,53.34,316.05Z"/><path class="cls-1" d="M361.8,223.74c2.34-44.81-69.17-45.9-69.42-1.87.68,48.05-49.15,91.41-92,88.6C214.68,311.68,357.58,309.21,361.8,223.74Z"/><path class="cls-1" d="M309.05,320.11c-27.5,27.49-73,47.31-107.22,50.5L330,369c19,2.77,37-12.22,36.46-30.88C365.72,308.74,327,297.54,309.05,320.11Z"/><path class="cls-1" d="M166.21,64.21C151.93,63.08,9.05,66.39,5.33,151.87c-2.08,44.83,69.43,45.5,69.43,1.47C73.79,105.29,123.37,61.64,166.21,64.21Z"/><path class="cls-1" d="M57.51,55.21C84.85,27.55,130.18,7.47,164.43,4.08L36.3,6.47C17.28,3.8-.66,18.9,0,37.56.91,66.91,39.74,77.88,57.51,55.21Z"/><path class="cls-1" d="M303.94,166.18c1.15-14.28-2-157.16-87.48-161-44.82-2.13-45.57,69.39-1.54,69.43C263,73.71,306.56,123.34,303.94,166.18Z"/><path class="cls-1" d="M313.07,57.49c27.62,27.37,47.66,72.72,51,107L361.84,36.34c2.68-19-12.4-37-31-36.32C301.44.87,290.42,39.69,313.07,57.49Z"/></g></g></svg>